<?xml version="1.0" encoding="utf-8"?>
<!-- Generator: Adobe Illustrator 22.1.0, SVG Export Plug-In . SVG Version: 6.00 Build 0)  -->
<svg version="1.1" id="Warstwa_1" xmlns="http://www.w3.org/2000/svg" xmlns:xlink="http://www.w3.org/1999/xlink" x="0px" y="0px"
	 viewBox="0 0 100 40" style="enable-background:new 0 0 100 40;" xml:space="preserve">
<style type="text/css">
	.st0{fill:#8FD166;}
	.st1{fill:#72BC44;}
</style>
<g>
	<g>
		<path class="st0" d="M13.3,27.6c1.7-3.3,3.9-5.8,6.6-7.8c0.4-0.3,0.5-0.9,0.2-1.4c-0.3-0.4-0.9-0.5-1.4-0.2c-1.6,1.1-3,2.5-4.2,4
			c-0.1,0.2-0.2,0.3-0.4,0.5c-0.1-0.3-0.3-0.7-0.3-1.1c-0.1-1.1,0.3-2.3,1.3-3.5c2.2-2.7,6.3-3.6,8.1-3.9c0.1,1.8,0,6-2.2,8.7
			c-1.2,1.4-2.2,2-3.4,1.8c-0.5-0.1-1,0.3-1.1,0.9c-0.1,0.5,0.3,1,0.9,1.1c0.3,0,0.7,0,1,0c0.7-0.1,1.4-0.3,2-0.7
			c0.7-0.4,1.4-1,2.1-1.9c3.3-4,2.7-10.2,2.6-11.1c0,0,0,0,0,0c0-0.5-0.5-0.9-1-0.9c-0.3,0-7,0.5-10.4,4.7c-1.3,1.6-1.9,3.3-1.7,4.9
			c0.1,1.2,0.6,2.1,1,2.7c-0.4,0.6-0.7,1.2-1.1,1.8c-1.5-1.6-2.6-3.7-2.8-6.1c-0.6-5.7,3.6-10.9,9.3-11.4c5.7-0.6,10.9,3.6,11.4,9.3
			c0.2,2-0.2,4.1-1.2,5.9c-0.3,0.5-0.1,1.1,0.4,1.3c0.5,0.3,1.1,0.1,1.3-0.4c1.2-2.2,1.6-4.6,1.4-7c-0.3-3.3-1.9-6.2-4.5-8.3
			s-5.8-3.1-9.1-2.7c-3.3,0.3-6.2,1.9-8.3,4.5s-3.1,5.8-2.7,9.1c0.3,3.3,1.9,6.2,4.5,8.3"/>
		<path class="st0" d="M27.8,27.4c-0.1-1-1-1.7-2-1.6c-1,0.1-1.7,1-1.7,2c-1.3,0.7-2.7,1.2-4.1,1.3c-2.2,0.2-4.3-0.3-6.1-1.3
			c0,0,0-0.1,0-0.1c0-0.3-0.1-0.5-0.2-0.7c1.6-3,3.7-5.3,6.2-7.2c0.4-0.3,0.5-0.9,0.2-1.4c-0.3-0.4-0.9-0.5-1.4-0.2
			c-1.6,1.1-3,2.5-4.2,4c-0.1,0.2-0.2,0.3-0.4,0.5l-1.3,1.8c-0.3,0.5-0.6,1-0.9,1.6c0,0-0.1,0-0.1,0c-1,0.1-1.7,1-1.6,2s1,1.7,2,1.6
			c0.3,0,0.5-0.1,0.7-0.2c2.2,1.2,4.7,1.7,7.2,1.5c1.8-0.2,3.5-0.8,5.1-1.7c0.3,0.1,0.6,0.2,0.9,0.1C27.2,29.3,27.9,28.4,27.8,27.4z
			"/>
		<g>
			<path class="st0" d="M64.4,24.7c0-0.6,0.1-1.2,0.3-1.8c0.2-0.6,0.5-1.1,1-1.5c0.4-0.4,0.9-0.8,1.5-1c0.6-0.3,1.3-0.4,2-0.4
				c1,0,1.8,0.2,2.6,0.6c0.7,0.4,1.2,1,1.6,1.7L71.1,23c-0.2-0.3-0.5-0.6-0.8-0.8c-0.3-0.2-0.7-0.3-1.1-0.3c-0.3,0-0.7,0.1-0.9,0.2
				c-0.3,0.1-0.5,0.3-0.8,0.6c-0.2,0.2-0.4,0.5-0.5,0.9c-0.1,0.3-0.2,0.7-0.2,1.1c0,0.4,0.1,0.8,0.2,1.1c0.1,0.3,0.3,0.6,0.5,0.9
				c0.2,0.2,0.5,0.4,0.8,0.6c0.3,0.1,0.6,0.2,0.9,0.2c0.4,0,0.8-0.1,1.2-0.3c0.4-0.2,0.6-0.5,0.7-0.8l2.3,0.7
				c-0.3,0.7-0.8,1.3-1.5,1.7c-0.7,0.4-1.6,0.7-2.6,0.7c-0.7,0-1.4-0.1-2-0.4c-0.6-0.3-1.1-0.6-1.5-1c-0.4-0.4-0.7-0.9-1-1.5
				C64.5,25.9,64.4,25.3,64.4,24.7z"/>
			<path class="st0" d="M74.4,18.9v-2.3h2.3v2.3H74.4z M74.4,29.3v-9.1h2.3v9.1H74.4z"/>
			<path class="st0" d="M84,28.8c-0.3,0.1-0.7,0.3-1.2,0.4c-0.5,0.1-0.9,0.2-1.4,0.2c-0.3,0-0.6,0-0.9-0.1c-0.3-0.1-0.5-0.2-0.7-0.4
				c-0.2-0.2-0.4-0.4-0.5-0.7c-0.1-0.3-0.2-0.6-0.2-1v-5.2h-1.2v-1.8H79v-3h2.3v3h1.9v1.8h-1.9v4.5c0,0.3,0.1,0.6,0.3,0.7
				c0.2,0.1,0.4,0.2,0.6,0.2c0.2,0,0.5,0,0.7-0.1c0.2-0.1,0.4-0.2,0.6-0.2L84,28.8z"/>
			<path class="st0" d="M84.9,31.1c0.2,0.1,0.4,0.1,0.6,0.1c0.2,0,0.3,0,0.5,0c0.2,0,0.3,0,0.4-0.1c0.1-0.1,0.2-0.1,0.3-0.3
				c0.1-0.1,0.2-0.3,0.3-0.6c0.1-0.2,0.2-0.6,0.4-1l-3.6-9.1h2.4l2.5,7.1l2.2-7.1H93l-3.8,10.9c-0.2,0.7-0.6,1.2-1.2,1.6
				c-0.5,0.4-1.2,0.6-1.9,0.6c-0.4,0-0.8-0.1-1.2-0.2V31.1z"/>
		</g>
	</g>
	<g>
		<g>
			<path class="st1" d="M43.1,21.4c-0.4-0.4-0.9-0.8-1.5-1c-0.6-0.3-1.3-0.4-2-0.4c-0.7,0-1.4,0.1-2,0.4c-0.6,0.3-1.1,0.6-1.5,1
				c-0.4,0.4-0.7,0.9-1,1.5c-0.2,0.6-0.3,1.2-0.3,1.8c0,0.6,0.1,1.2,0.3,1.8c0.2,0.6,0.5,1.1,1,1.5c0.4,0.4,0.9,0.8,1.5,1
				c0.6,0.2,1.3,0.4,2,0.4c1,0,1.9-0.2,2.6-0.7c0.7-0.4,1.3-1,1.6-1.7l-2-0.6c-0.2,0.4-0.4,0.7-0.8,0.9c-0.4,0.2-0.9,0.3-1.3,0.3
				c-0.3,0-0.6-0.1-0.9-0.2c-0.3-0.1-0.5-0.3-0.7-0.5c-0.2-0.2-0.4-0.4-0.5-0.7c-0.1-0.3-0.2-0.6-0.3-1h7.1c0-0.1,0-0.2,0-0.3
				c0-0.1,0-0.3,0-0.4c0-0.6-0.1-1.2-0.3-1.8C43.8,22.3,43.5,21.8,43.1,21.4z M37.2,24c0-0.3,0.1-0.6,0.2-0.9
				c0.1-0.3,0.3-0.5,0.5-0.7c0.2-0.2,0.4-0.4,0.7-0.5c0.3-0.1,0.6-0.2,0.9-0.2c0.6,0,1.2,0.2,1.6,0.6c0.4,0.4,0.7,1,0.8,1.6H37.2z"
				/>
			<path class="st1" d="M50.8,27.2c-0.4,0.2-0.7,0.3-1.2,0.3c-0.3,0-0.6-0.1-0.9-0.2c-0.3-0.1-0.5-0.3-0.8-0.6
				c-0.2-0.2-0.4-0.5-0.5-0.9c-0.1-0.3-0.2-0.7-0.2-1.1c0-0.4,0.1-0.8,0.2-1.1c0.1-0.3,0.3-0.6,0.5-0.9c0.2-0.2,0.5-0.4,0.8-0.6
				c0.3-0.1,0.6-0.2,0.9-0.2c0.4,0,0.8,0.1,1.1,0.3c0.3,0.2,0.6,0.4,0.8,0.8l2.3-0.7c-0.3-0.7-0.9-1.3-1.6-1.7
				c-0.7-0.4-1.6-0.6-2.6-0.6c-0.7,0-1.4,0.1-2,0.4c-0.6,0.3-1.1,0.6-1.5,1c-0.4,0.4-0.7,0.9-1,1.5c-0.2,0.6-0.3,1.2-0.3,1.8
				c0,0.6,0.1,1.2,0.3,1.8c0.2,0.6,0.5,1.1,1,1.5c0.4,0.4,0.9,0.8,1.5,1c0.6,0.3,1.3,0.4,2,0.4c1,0,1.9-0.2,2.6-0.7
				c0.7-0.4,1.2-1,1.5-1.7l-2.3-0.7C51.4,26.7,51.2,26.9,50.8,27.2z"/>
			<path class="st1" d="M63.4,22.9c-0.2-0.6-0.5-1.1-0.9-1.5c-0.4-0.4-0.9-0.8-1.5-1c-0.6-0.3-1.3-0.4-2-0.4c-0.7,0-1.4,0.1-2,0.4
				c-0.6,0.3-1.1,0.6-1.5,1c-0.4,0.4-0.7,0.9-0.9,1.5c-0.2,0.6-0.3,1.2-0.3,1.8c0,0.6,0.1,1.2,0.3,1.8c0.2,0.6,0.5,1.1,0.9,1.5
				c0.4,0.4,0.9,0.8,1.5,1c0.6,0.3,1.3,0.4,2,0.4c0.7,0,1.4-0.1,2-0.4c0.6-0.3,1.1-0.6,1.5-1c0.4-0.4,0.7-0.9,0.9-1.5
				c0.2-0.6,0.3-1.2,0.3-1.8C63.8,24.1,63.7,23.5,63.4,22.9z M61.2,25.8c-0.1,0.3-0.3,0.6-0.5,0.9c-0.2,0.2-0.5,0.4-0.8,0.6
				c-0.3,0.1-0.6,0.2-0.9,0.2c-0.3,0-0.7-0.1-0.9-0.2c-0.3-0.1-0.5-0.3-0.8-0.6c-0.2-0.2-0.4-0.5-0.5-0.9c-0.1-0.3-0.2-0.7-0.2-1.1
				c0-0.4,0.1-0.8,0.2-1.1c0.1-0.3,0.3-0.6,0.5-0.9c0.2-0.2,0.5-0.4,0.8-0.6c0.3-0.1,0.6-0.2,0.9-0.2c0.3,0,0.6,0.1,0.9,0.2
				c0.3,0.1,0.5,0.3,0.8,0.6c0.2,0.2,0.4,0.5,0.5,0.9c0.1,0.3,0.2,0.7,0.2,1.1C61.4,25.1,61.3,25.5,61.2,25.8z"/>
		</g>
		<g>
			<path class="st0" d="M43.1,21.4c-0.4-0.4-0.9-0.8-1.5-1c-0.6-0.3-1.3-0.4-2-0.4c-0.7,0-1.4,0.1-2,0.4c-0.6,0.3-1.1,0.6-1.5,1
				c-0.4,0.4-0.7,0.9-1,1.5c-0.2,0.6-0.3,1.2-0.3,1.8c0,0.6,0.1,1.2,0.3,1.8c0.2,0.6,0.5,1.1,1,1.5c0.4,0.4,0.9,0.8,1.5,1
				c0.6,0.2,1.3,0.4,2,0.4c1,0,1.9-0.2,2.6-0.7c0.7-0.4,1.3-1,1.6-1.7l-2-0.6c-0.2,0.4-0.4,0.7-0.8,0.9c-0.4,0.2-0.9,0.3-1.3,0.3
				c-0.3,0-0.6-0.1-0.9-0.2c-0.3-0.1-0.5-0.3-0.7-0.5c-0.2-0.2-0.4-0.4-0.5-0.7c-0.1-0.3-0.2-0.6-0.3-1h7.1c0-0.1,0-0.2,0-0.3
				c0-0.1,0-0.3,0-0.4c0-0.6-0.1-1.2-0.3-1.8C43.8,22.3,43.5,21.8,43.1,21.4z M37.2,24c0-0.3,0.1-0.6,0.2-0.9
				c0.1-0.3,0.3-0.5,0.5-0.7c0.2-0.2,0.4-0.4,0.7-0.5c0.3-0.1,0.6-0.2,0.9-0.2c0.6,0,1.2,0.2,1.6,0.6c0.4,0.4,0.7,1,0.8,1.6H37.2z"
				/>
			<path class="st0" d="M50.8,27.2c-0.4,0.2-0.7,0.3-1.2,0.3c-0.3,0-0.6-0.1-0.9-0.2c-0.3-0.1-0.5-0.3-0.8-0.6
				c-0.2-0.2-0.4-0.5-0.5-0.9c-0.1-0.3-0.2-0.7-0.2-1.1c0-0.4,0.1-0.8,0.2-1.1c0.1-0.3,0.3-0.6,0.5-0.9c0.2-0.2,0.5-0.4,0.8-0.6
				c0.3-0.1,0.6-0.2,0.9-0.2c0.4,0,0.8,0.1,1.1,0.3c0.3,0.2,0.6,0.4,0.8,0.8l2.3-0.7c-0.3-0.7-0.9-1.3-1.6-1.7
				c-0.7-0.4-1.6-0.6-2.6-0.6c-0.7,0-1.4,0.1-2,0.4c-0.6,0.3-1.1,0.6-1.5,1c-0.4,0.4-0.7,0.9-1,1.5c-0.2,0.6-0.3,1.2-0.3,1.8
				c0,0.6,0.1,1.2,0.3,1.8c0.2,0.6,0.5,1.1,1,1.5c0.4,0.4,0.9,0.8,1.5,1c0.6,0.3,1.3,0.4,2,0.4c1,0,1.9-0.2,2.6-0.7
				c0.7-0.4,1.2-1,1.5-1.7l-2.3-0.7C51.4,26.7,51.2,26.9,50.8,27.2z"/>
			<path class="st0" d="M63.4,22.9c-0.2-0.6-0.5-1.1-0.9-1.5c-0.4-0.4-0.9-0.8-1.5-1c-0.6-0.3-1.3-0.4-2-0.4c-0.7,0-1.4,0.1-2,0.4
				c-0.6,0.3-1.1,0.6-1.5,1c-0.4,0.4-0.7,0.9-0.9,1.5c-0.2,0.6-0.3,1.2-0.3,1.8c0,0.6,0.1,1.2,0.3,1.8c0.2,0.6,0.5,1.1,0.9,1.5
				c0.4,0.4,0.9,0.8,1.5,1c0.6,0.3,1.3,0.4,2,0.4c0.7,0,1.4-0.1,2-0.4c0.6-0.3,1.1-0.6,1.5-1c0.4-0.4,0.7-0.9,0.9-1.5
				c0.2-0.6,0.3-1.2,0.3-1.8C63.8,24.1,63.7,23.5,63.4,22.9z M61.2,25.8c-0.1,0.3-0.3,0.6-0.5,0.9c-0.2,0.2-0.5,0.4-0.8,0.6
				c-0.3,0.1-0.6,0.2-0.9,0.2c-0.3,0-0.7-0.1-0.9-0.2c-0.3-0.1-0.5-0.3-0.8-0.6c-0.2-0.2-0.4-0.5-0.5-0.9c-0.1-0.3-0.2-0.7-0.2-1.1
				c0-0.4,0.1-0.8,0.2-1.1c0.1-0.3,0.3-0.6,0.5-0.9c0.2-0.2,0.5-0.4,0.8-0.6c0.3-0.1,0.6-0.2,0.9-0.2c0.3,0,0.6,0.1,0.9,0.2
				c0.3,0.1,0.5,0.3,0.8,0.6c0.2,0.2,0.4,0.5,0.5,0.9c0.1,0.3,0.2,0.7,0.2,1.1C61.4,25.1,61.3,25.5,61.2,25.8z"/>
		</g>
	</g>
</g>
</svg>
