<svg xmlns="http://www.w3.org/2000/svg" xmlns:xlink="http://www.w3.org/1999/xlink" viewBox="0 0 532.42 164.36"><defs><style>.cls-1{fill:url(#Gradient_bez_nazwy_27);}.cls-2{fill:url(#Gradient_bez_nazwy_27-2);}.cls-3{fill:#0a5128;}.cls-4{fill:#72bc44;}.cls-5{fill:url(#Gradient_bez_nazwy_27-3);}</style><linearGradient id="Gradient_bez_nazwy_27" x1="38.76" y1="142.07" x2="114.88" y2="10.22" gradientUnits="userSpaceOnUse"><stop offset="0" stop-color="#0c8040"/><stop offset="0.1" stop-color="#268f41"/><stop offset="0.23" stop-color="#429f42"/><stop offset="0.38" stop-color="#57ac43"/><stop offset="0.54" stop-color="#66b544"/><stop offset="0.73" stop-color="#6fba44"/><stop offset="1" stop-color="#72bc44"/></linearGradient><linearGradient id="Gradient_bez_nazwy_27-2" x1="130.53" y1="120.26" x2="24.89" y2="101.64" xlink:href="#Gradient_bez_nazwy_27"/><linearGradient id="Gradient_bez_nazwy_27-3" x1="351.57" y1="111.46" x2="171.79" y2="111.46" xlink:href="#Gradient_bez_nazwy_27"/></defs><title>logo</title><g id="Warstwa_2" data-name="Warstwa 2"><g id="Warstwa_1-2" data-name="Warstwa 1"><path class="cls-1" d="M38.93,129.1C49.48,108.86,62.87,93,79.77,80.59a6,6,0,0,0-7.07-9.66A143.23,143.23,0,0,0,46.46,95.85c-.76.93-1.52,1.89-2.27,2.85a24.65,24.65,0,0,1-1.84-6.91c-.75-7.09,1.87-14.19,8-21.7,13.93-17,39-22.61,50.38-24.33.58,11.41.06,37-13.91,54-7.15,8.72-13.67,12.24-21.17,11.43a6,6,0,0,0-1.28,11.91A29.93,29.93,0,0,0,83.21,119a49.49,49.49,0,0,0,12.91-11.59c20.55-25.07,16.74-63.33,16.1-68.58a.57.57,0,0,0,0-.13,6,6,0,0,0-6.34-5.57c-1.76.11-43.11,3-64.74,29.39-8.19,10-11.78,20.26-10.68,30.56a39.79,39.79,0,0,0,6,16.59q-3.54,5.47-6.74,11.37A64.67,64.67,0,1,1,133.62,107a6,6,0,1,0,10.56,5.63A76.57,76.57,0,0,0,17.31,28.13a76.6,76.6,0,0,0,10.82,107.8"/><path class="cls-2" d="M128.76,127.85A11.41,11.41,0,0,0,106,129.9a64.59,64.59,0,0,1-63.29.21c0-.19,0-.38,0-.57A11.24,11.24,0,0,0,41.26,125C51.46,106.66,64.18,92,80,80.48a6,6,0,1,0-7.07-9.66A142.8,142.8,0,0,0,46.66,95.73c-.77.94-1.53,1.9-2.27,2.86l-7.77,11c-2,3.14-4,6.4-5.85,9.75l-.55,0a11.41,11.41,0,1,0,6.72,21.3,76.73,76.73,0,0,0,76.26-1,11.4,11.4,0,0,0,15.56-11.74Z"/><path class="cls-3" d="M355.45,111.41a30.66,30.66,0,0,1,2.05-11.22,27.34,27.34,0,0,1,5.93-9.28,29.24,29.24,0,0,1,9.38-6.36,31.07,31.07,0,0,1,12.41-2.37q9.27,0,15.8,4a25.52,25.52,0,0,1,9.76,10.46l-14.13,4.31a12.74,12.74,0,0,0-4.85-4.79,13.56,13.56,0,0,0-6.69-1.68,13.89,13.89,0,0,0-5.83,1.24,14.37,14.37,0,0,0-4.69,3.46,15.86,15.86,0,0,0-3.12,5.33,20.07,20.07,0,0,0-1.14,6.91,19.37,19.37,0,0,0,1.19,6.9,17.43,17.43,0,0,0,3.18,5.39,14.1,14.1,0,0,0,4.69,3.51,13.62,13.62,0,0,0,5.72,1.23,13.78,13.78,0,0,0,7.17-1.94,10.87,10.87,0,0,0,4.58-4.74L411,126.07a23.69,23.69,0,0,1-9.6,10.57,30.09,30.09,0,0,1-16.07,4.1,31.05,31.05,0,0,1-12.4-2.37,28.15,28.15,0,0,1-15.37-15.8A30.22,30.22,0,0,1,355.45,111.41Z"/><path class="cls-3" d="M417.57,75.28V60.93H432V75.28Zm0,64.38V83.15H432v56.51Z"/><path class="cls-3" d="M476.67,136.75a65,65,0,0,1-7.17,2.59,30.56,30.56,0,0,1-8.9,1.29,20.65,20.65,0,0,1-5.66-.75,12.35,12.35,0,0,1-4.64-2.43,11.8,11.8,0,0,1-3.18-4.31,15.62,15.62,0,0,1-1.19-6.42V94.26H438.6V83.15h7.33V64.82h14.45V83.15h12V94.26h-12v27.61q0,3,1.62,4.26a6.23,6.23,0,0,0,3.88,1.24,13.19,13.19,0,0,0,4.43-.76q2.15-.75,3.45-1.29Z"/><path class="cls-3" d="M482.17,150.66a27.3,27.3,0,0,0,3.56.76,22.17,22.17,0,0,0,2.8.21,5.24,5.24,0,0,0,4.59-2.26,17.11,17.11,0,0,0,2-3.62,57.56,57.56,0,0,0,2.21-6.09L474.94,83.15h14.89l15.42,44,13.59-44h13.58l-23.83,67.73a19.77,19.77,0,0,1-7.23,10,19.44,19.44,0,0,1-11.53,3.51,26.15,26.15,0,0,1-7.66-1.19Z"/><path class="cls-4" d="M223.29,90.91A28.68,28.68,0,0,0,214,84.55a30.62,30.62,0,0,0-12.34-2.37,31.42,31.42,0,0,0-12.46,2.37A28.45,28.45,0,0,0,179.77,91a27.87,27.87,0,0,0-5.93,9.38,31.61,31.61,0,0,0-2.05,11.38,29.62,29.62,0,0,0,2.11,11.11,27.72,27.72,0,0,0,15.36,15.58,31.32,31.32,0,0,0,12.3,2.32,30.93,30.93,0,0,0,16.34-4.15,25.23,25.23,0,0,0,10-10.62l-12.4-3.46a11.13,11.13,0,0,1-5.23,5.56,16.68,16.68,0,0,1-8.14,2.1,15.22,15.22,0,0,1-5.4-1,14.6,14.6,0,0,1-4.63-2.8,14.89,14.89,0,0,1-3.35-4.42,16.77,16.77,0,0,1-1.61-5.94h43.67a10,10,0,0,0,.27-2.15c0-.87.06-1.76.06-2.7a30.88,30.88,0,0,0-2-11A27.21,27.21,0,0,0,223.29,90.91Zm-36.4,15.75a15.52,15.52,0,0,1,1.46-5.72,14.75,14.75,0,0,1,3.18-4.42A14.3,14.3,0,0,1,196,93.66a15.14,15.14,0,0,1,15.53,2.81,15,15,0,0,1,4.7,10.19Z"/><path class="cls-4" d="M271.17,126.5a14.08,14.08,0,0,1-12.89.71,14.1,14.1,0,0,1-4.69-3.51,17.43,17.43,0,0,1-3.18-5.39,19.37,19.37,0,0,1-1.19-6.9,20.07,20.07,0,0,1,1.14-6.91,15.72,15.72,0,0,1,3.13-5.33,14.16,14.16,0,0,1,4.69-3.46A13.81,13.81,0,0,1,264,94.47a13.56,13.56,0,0,1,6.69,1.68,12.67,12.67,0,0,1,4.85,4.79l14.13-4.31a25.52,25.52,0,0,0-9.76-10.46q-6.53-4-15.8-4a31,31,0,0,0-12.4,2.37,29.17,29.17,0,0,0-9.39,6.36,27.49,27.49,0,0,0-5.93,9.28,30.86,30.86,0,0,0-2,11.22,30.22,30.22,0,0,0,2.1,11.16,28.15,28.15,0,0,0,15.37,15.8,31.07,31.07,0,0,0,12.41,2.37,30.06,30.06,0,0,0,16.06-4.1,23.69,23.69,0,0,0,9.6-10.57l-14.12-4.31A11,11,0,0,1,271.17,126.5Z"/><path class="cls-4" d="M349.52,100.3a27.88,27.88,0,0,0-15.15-15.75A30.67,30.67,0,0,0,322,82.18a31,31,0,0,0-12.4,2.37A27.88,27.88,0,0,0,300.29,91a28.41,28.41,0,0,0-5.88,9.33,31.4,31.4,0,0,0,0,22.32,28.41,28.41,0,0,0,5.88,9.33,27.73,27.73,0,0,0,9.33,6.42,33.62,33.62,0,0,0,24.8,0A27.23,27.23,0,0,0,343.7,132a28.75,28.75,0,0,0,5.82-9.33,31.4,31.4,0,0,0,0-22.32Zm-13.86,18a16.74,16.74,0,0,1-3.12,5.39,14.14,14.14,0,0,1-4.7,3.51,14.38,14.38,0,0,1-11.64,0,14,14,0,0,1-4.69-3.51,16.47,16.47,0,0,1-3.13-5.34,21.15,21.15,0,0,1,0-13.64,16.3,16.3,0,0,1,3.13-5.39,14.56,14.56,0,0,1,4.69-3.56,13.27,13.27,0,0,1,5.82-1.3,13.81,13.81,0,0,1,5.82,1.24,14.14,14.14,0,0,1,4.7,3.51,16.74,16.74,0,0,1,3.12,5.39,19.73,19.73,0,0,1,1.14,6.8A20.06,20.06,0,0,1,335.66,118.31Z"/><path class="cls-5" d="M223.29,90.91A28.68,28.68,0,0,0,214,84.55a30.62,30.62,0,0,0-12.34-2.37,31.42,31.42,0,0,0-12.46,2.37A28.45,28.45,0,0,0,179.77,91a27.87,27.87,0,0,0-5.93,9.38,31.61,31.61,0,0,0-2.05,11.38,29.62,29.62,0,0,0,2.11,11.11,27.72,27.72,0,0,0,15.36,15.58,31.32,31.32,0,0,0,12.3,2.32,30.93,30.93,0,0,0,16.34-4.15,25.23,25.23,0,0,0,10-10.62l-12.4-3.46a11.13,11.13,0,0,1-5.23,5.56,16.68,16.68,0,0,1-8.14,2.1,15.22,15.22,0,0,1-5.4-1,14.6,14.6,0,0,1-4.63-2.8,14.89,14.89,0,0,1-3.35-4.42,16.77,16.77,0,0,1-1.61-5.94h43.67a10,10,0,0,0,.27-2.15c0-.87.06-1.76.06-2.7a30.88,30.88,0,0,0-2-11A27.21,27.21,0,0,0,223.29,90.91Zm-36.4,15.75a15.52,15.52,0,0,1,1.46-5.72,14.75,14.75,0,0,1,3.18-4.42A14.3,14.3,0,0,1,196,93.66a15.14,15.14,0,0,1,15.53,2.81,15,15,0,0,1,4.7,10.19Z"/><path class="cls-5" d="M271.17,126.5a14.08,14.08,0,0,1-12.89.71,14.1,14.1,0,0,1-4.69-3.51,17.43,17.43,0,0,1-3.18-5.39,19.37,19.37,0,0,1-1.19-6.9,20.07,20.07,0,0,1,1.14-6.91,15.72,15.72,0,0,1,3.13-5.33,14.16,14.16,0,0,1,4.69-3.46A13.81,13.81,0,0,1,264,94.47a13.56,13.56,0,0,1,6.69,1.68,12.67,12.67,0,0,1,4.85,4.79l14.13-4.31a25.52,25.52,0,0,0-9.76-10.46q-6.53-4-15.8-4a31,31,0,0,0-12.4,2.37,29.17,29.17,0,0,0-9.39,6.36,27.49,27.49,0,0,0-5.93,9.28,30.86,30.86,0,0,0-2,11.22,30.22,30.22,0,0,0,2.1,11.16,28.15,28.15,0,0,0,15.37,15.8,31.07,31.07,0,0,0,12.41,2.37,30.06,30.06,0,0,0,16.06-4.1,23.69,23.69,0,0,0,9.6-10.57l-14.12-4.31A11,11,0,0,1,271.17,126.5Z"/><path class="cls-5" d="M349.52,100.3a27.88,27.88,0,0,0-15.15-15.75A30.67,30.67,0,0,0,322,82.18a31,31,0,0,0-12.4,2.37A27.88,27.88,0,0,0,300.29,91a28.41,28.41,0,0,0-5.88,9.33,31.4,31.4,0,0,0,0,22.32,28.41,28.41,0,0,0,5.88,9.33,27.73,27.73,0,0,0,9.33,6.42,33.62,33.62,0,0,0,24.8,0A27.23,27.23,0,0,0,343.7,132a28.75,28.75,0,0,0,5.82-9.33,31.4,31.4,0,0,0,0-22.32Zm-13.86,18a16.74,16.74,0,0,1-3.12,5.39,14.14,14.14,0,0,1-4.7,3.51,14.38,14.38,0,0,1-11.64,0,14,14,0,0,1-4.69-3.51,16.47,16.47,0,0,1-3.13-5.34,21.15,21.15,0,0,1,0-13.64,16.3,16.3,0,0,1,3.13-5.39,14.56,14.56,0,0,1,4.69-3.56,13.27,13.27,0,0,1,5.82-1.3,13.81,13.81,0,0,1,5.82,1.24,14.14,14.14,0,0,1,4.7,3.51,16.74,16.74,0,0,1,3.12,5.39,19.73,19.73,0,0,1,1.14,6.8A20.06,20.06,0,0,1,335.66,118.31Z"/></g></g></svg>